<?xml version="1.0" standalone="no"?>
<!DOCTYPE svg PUBLIC "-//W3C//DTD SVG 20010904//EN"
 "http://www.w3.org/TR/2001/REC-SVG-20010904/DTD/svg10.dtd">
<svg version="1.0" xmlns="http://www.w3.org/2000/svg"
 width="615.000000pt" height="615.000000pt" viewBox="0 0 615.000000 615.000000"
 preserveAspectRatio="xMidYMid meet">
<metadata>
Created by potrace 1.11, written by Peter Selinger 2001-2013
</metadata>
<g transform="translate(0.000000,615.000000) scale(0.100000,-0.100000)"
fill="#000000" stroke="none">
<path d="M3998 5972 c-21 -2 -38 -7 -38 -13 0 -5 -8 -9 -18 -9 -21 0 -62 -39
-62 -59 0 -7 -4 -9 -10 -6 -5 3 -10 -3 -10 -14 0 -12 -4 -21 -10 -21 -5 0 -13
-12 -16 -26 -4 -16 -11 -23 -21 -20 -9 4 -11 2 -7 -6 4 -6 0 -16 -9 -23 -10
-7 -18 -24 -19 -38 -1 -14 -6 -23 -10 -21 -5 3 -13 -8 -19 -25 -6 -18 -16 -28
-22 -24 -5 3 -7 1 -4 -4 4 -6 0 -16 -8 -23 -8 -7 -15 -21 -15 -31 0 -11 -5
-19 -10 -19 -6 0 -9 -6 -8 -12 2 -7 -3 -12 -10 -10 -6 1 -11 -1 -11 -5 4 -26
-3 -53 -13 -51 -7 2 -12 -5 -13 -15 0 -10 -5 -21 -11 -25 -12 -8 -28 -43 -25
-56 1 -5 -6 -5 -16 -2 -9 4 -14 4 -10 0 4 -4 1 -14 -6 -22 -10 -13 -9 -14 3
-7 8 4 4 -3 -9 -18 -14 -16 -20 -31 -15 -39 4 -7 4 -10 0 -6 -10 8 -36 -14
-29 -24 2 -5 0 -8 -5 -8 -10 0 -30 -47 -28 -62 1 -4 -9 -15 -21 -23 -13 -9
-23 -27 -23 -39 0 -13 -7 -27 -16 -30 -8 -3 -12 -10 -9 -16 3 -6 -1 -13 -10
-16 -9 -4 -14 -13 -11 -20 3 -8 1 -14 -5 -14 -6 0 -8 -7 -5 -16 3 -8 2 -12 -4
-9 -5 3 -12 -6 -16 -20 -3 -14 -14 -25 -23 -26 -9 0 -11 -3 -5 -5 9 -4 9 -11
0 -29 -6 -14 -14 -25 -18 -25 -5 0 -8 -7 -8 -15 0 -8 -6 -15 -12 -15 -9 0 -8
-4 2 -10 13 -8 13 -10 -2 -10 -12 0 -16 -6 -13 -21 3 -15 0 -19 -10 -15 -8 3
-14 2 -13 -2 4 -15 -14 -52 -22 -47 -5 3 -7 -3 -5 -14 2 -11 -3 -22 -11 -25
-9 -3 -13 -10 -10 -15 3 -5 -2 -12 -11 -15 -15 -6 -15 -8 -3 -16 13 -8 12 -10
-3 -10 -10 0 -15 -4 -12 -10 3 -5 1 -10 -5 -10 -6 0 -8 -4 -5 -10 3 -5 1 -10
-5 -10 -6 0 -8 -4 -5 -10 3 -5 -1 -10 -10 -10 -9 0 -14 -4 -10 -10 3 -5 -3
-18 -13 -28 -10 -10 -16 -24 -14 -30 2 -7 -1 -12 -8 -12 -6 0 -8 -5 -5 -10 3
-6 -1 -13 -9 -16 -9 -3 -16 -15 -16 -25 0 -11 -7 -22 -15 -25 -8 -4 -12 -10
-9 -15 3 -5 0 -9 -5 -9 -6 0 -10 -3 -9 -7 3 -15 -14 -43 -23 -37 -5 3 -6 -1
-3 -9 3 -8 -2 -22 -11 -31 -12 -12 -13 -16 -3 -16 7 -1 4 -6 -8 -13 -12 -7
-19 -18 -17 -24 3 -7 0 -13 -5 -13 -5 0 -12 -9 -15 -21 -3 -12 -10 -18 -15
-15 -6 3 -9 -2 -8 -11 2 -10 -5 -29 -15 -42 -10 -13 -17 -27 -14 -31 3 -4 -3
-14 -13 -21 -16 -13 -16 -13 -2 6 14 19 14 19 -3 6 -13 -10 -15 -17 -6 -27 9
-11 8 -14 0 -14 -7 0 -9 -4 -6 -10 5 -9 -7 -14 -26 -12 -4 1 -5 -8 -2 -18 3
-12 0 -20 -6 -20 -7 0 -9 -5 -6 -10 3 -5 1 -10 -5 -10 -6 0 -8 -4 -5 -10 3 -5
1 -10 -5 -10 -6 0 -9 -4 -5 -9 3 -5 1 -12 -5 -16 -6 -4 -7 -11 -4 -17 5 -7 1
-9 -9 -5 -11 4 -15 1 -12 -14 2 -10 -1 -19 -6 -19 -6 0 -7 -4 -4 -10 3 -5 1
-10 -4 -10 -6 0 -10 -6 -9 -12 2 -7 -2 -12 -9 -11 -7 2 -10 -3 -7 -11 3 -8 1
-17 -5 -20 -6 -4 -7 -14 -4 -23 4 -11 3 -14 -5 -9 -8 5 -12 0 -12 -14 0 -12
-4 -19 -9 -15 -5 3 -12 1 -16 -5 -3 -5 0 -10 7 -10 10 -1 9 -4 -2 -13 -8 -7
-16 -19 -18 -27 -5 -27 -25 -59 -34 -54 -7 5 -12 -10 -9 -28 0 -5 -3 -8 -9 -8
-5 0 -10 -8 -10 -18 0 -9 -11 -25 -24 -36 -14 -10 -22 -24 -19 -32 3 -8 1 -14
-4 -14 -4 0 -17 -17 -28 -37 -27 -52 -77 -127 -87 -131 -5 -2 -6 -8 -2 -13 3
-5 0 -9 -6 -9 -7 0 -9 -7 -6 -17 4 -10 4 -15 1 -11 -11 10 -42 -26 -37 -41 3
-8 1 -12 -4 -8 -10 6 -51 -51 -46 -65 1 -5 -2 -8 -7 -8 -5 0 -13 -9 -16 -20
-4 -11 -11 -18 -16 -15 -5 3 -6 -1 -3 -9 4 -11 0 -16 -12 -16 -16 0 -16 -2 -4
-10 12 -8 12 -10 -2 -15 -10 -4 -15 -16 -14 -29 2 -13 -2 -23 -8 -22 -6 0 -12
-3 -14 -9 -2 -5 -9 -17 -17 -25 -7 -8 -16 -25 -20 -38 -4 -13 -11 -20 -18 -15
-7 4 -5 -2 3 -12 9 -11 10 -16 3 -11 -9 5 -13 0 -13 -14 0 -12 -4 -19 -8 -16
-4 2 -14 -4 -21 -16 -7 -11 -8 -17 -2 -13 6 3 11 1 11 -4 0 -6 -4 -11 -9 -11
-5 0 -23 -29 -40 -65 -18 -36 -36 -65 -42 -65 -6 0 -7 -4 -4 -10 3 -5 1 -10
-5 -10 -6 0 -9 -4 -5 -9 3 -5 -1 -16 -9 -24 -8 -8 -12 -17 -9 -21 4 -3 1 -6
-6 -6 -7 0 -10 -4 -7 -9 7 -11 -19 -33 -28 -24 -4 4 -4 0 0 -10 3 -9 2 -17 -2
-17 -5 0 -20 -25 -34 -55 -14 -30 -29 -55 -33 -55 -5 0 -5 -4 -2 -10 3 -5 1
-10 -5 -10 -6 0 -9 -4 -5 -9 3 -5 1 -12 -5 -16 -6 -4 -7 -11 -4 -17 4 -6 3 -8
-2 -5 -6 3 -16 -3 -23 -15 -10 -16 -10 -19 1 -13 7 4 1 -4 -14 -17 -29 -26
-37 -44 -15 -33 6 4 4 0 -7 -9 -10 -8 -15 -19 -11 -25 3 -7 0 -8 -10 -5 -11 5
-14 2 -9 -10 3 -9 1 -16 -5 -16 -6 0 -10 -3 -10 -7 3 -21 -2 -34 -11 -28 -6 4
-10 3 -9 -2 4 -16 -13 -63 -22 -58 -4 3 -6 -3 -4 -15 2 -11 1 -19 -3 -17 -4 1
-8 -1 -9 -6 -5 -16 -29 -35 -38 -29 -5 3 -4 -2 4 -11 9 -11 10 -17 2 -17 -6 0
-11 -6 -11 -14 0 -8 -8 -17 -17 -20 -14 -6 -15 -9 -4 -15 10 -7 8 -13 -9 -29
-12 -11 -19 -25 -15 -31 3 -6 -1 -11 -9 -11 -10 0 -13 -6 -10 -15 4 -8 1 -15
-6 -15 -6 0 -8 -5 -5 -10 3 -5 2 -10 -3 -10 -5 0 -12 -9 -15 -21 -3 -12 -10
-18 -16 -15 -6 4 -8 -2 -6 -14 2 -11 -3 -24 -13 -30 -11 -6 -12 -10 -4 -10 10
0 10 -3 0 -14 -7 -8 -15 -12 -18 -11 -3 2 -7 -6 -7 -17 -1 -12 -7 -24 -13 -28
-7 -4 -11 -10 -11 -14 3 -20 -1 -25 -13 -20 -11 4 -13 0 -9 -15 3 -12 1 -21
-6 -21 -6 0 -10 -3 -10 -7 4 -22 -2 -33 -13 -27 -7 4 -10 4 -6 -1 4 -4 2 -15
-5 -23 -10 -13 -9 -15 3 -8 9 4 8 2 -2 -7 -10 -8 -15 -17 -11 -20 3 -4 -2 -7
-12 -7 -14 0 -15 -3 -5 -15 11 -13 10 -14 -5 -9 -13 5 -16 4 -11 -4 4 -7 3
-12 -2 -12 -6 0 -9 -8 -8 -17 0 -10 -4 -17 -11 -16 -7 2 -10 -4 -7 -12 4 -8 2
-15 -4 -15 -5 0 -13 -11 -16 -25 -4 -14 -10 -23 -15 -21 -5 3 -9 0 -8 -7 1
-34 -4 -48 -15 -41 -8 5 -9 2 -5 -9 3 -10 2 -17 -4 -17 -6 0 -8 -4 -5 -9 9
-15 -5 -42 -18 -34 -6 4 -5 -1 3 -11 16 -19 21 -76 7 -76 -5 0 -3 -7 4 -15 10
-12 10 -15 -1 -15 -11 0 -11 -2 1 -10 12 -8 12 -10 1 -10 -11 0 -11 -3 -1 -15
7 -8 8 -15 3 -15 -7 0 -8 -15 -3 -40 4 -23 3 -40 -2 -40 -5 0 -6 -5 -2 -12 10
-17 11 -68 0 -68 -5 0 -3 -7 5 -16 10 -13 10 -17 -2 -25 -12 -7 -12 -9 1 -9
13 0 13 -1 0 -10 -8 -5 -10 -10 -4 -10 6 0 11 -7 11 -15 0 -8 -5 -15 -10 -15
-6 0 -6 -5 0 -13 5 -6 9 -25 9 -42 -1 -16 4 -33 9 -37 6 -5 4 -12 -5 -18 -8
-5 -10 -10 -4 -10 7 0 11 -20 10 -50 -1 -28 2 -50 7 -50 4 0 7 -5 7 -11 0 -5
-4 -8 -8 -5 -5 3 -9 -1 -9 -9 0 -8 4 -15 8 -15 5 0 7 -14 5 -30 -2 -17 0 -33
4 -35 9 -6 8 -25 -3 -42 -5 -7 -4 -13 0 -13 5 0 10 -11 11 -25 1 -14 -4 -25
-11 -25 -8 0 -7 -4 3 -10 8 -5 11 -10 5 -10 -5 0 -3 -5 5 -10 9 -6 11 -10 3
-10 -7 0 -10 -6 -8 -12 3 -7 7 -40 9 -73 2 -33 9 -61 15 -63 6 -2 9 -7 6 -12
-13 -20 38 5 52 26 8 13 19 21 24 18 5 -3 8 -1 7 4 -2 5 12 24 30 41 17 17 32
35 32 41 0 5 9 15 20 23 11 8 17 16 14 20 -3 3 4 10 15 17 12 6 19 15 16 21
-4 5 -3 8 2 7 11 -3 83 69 76 76 -4 3 1 6 10 6 11 0 14 5 10 17 -4 9 -2 14 3
11 5 -3 20 9 34 28 14 18 30 32 37 29 8 -2 10 2 6 13 -3 9 -3 14 1 10 11 -9
76 54 76 74 0 10 6 17 13 15 6 -1 11 3 10 10 -2 7 4 10 12 7 8 -4 15 -1 15 5
0 6 9 20 20 31 11 11 18 20 15 20 -3 0 15 19 40 43 25 24 45 48 45 54 0 5 11
16 25 23 13 7 22 17 19 22 -3 4 2 11 10 14 9 3 14 10 11 14 -3 5 1 15 9 23 8
8 12 17 9 21 -4 3 -1 6 5 6 6 0 9 7 6 15 -4 8 -1 15 6 15 6 0 8 5 5 10 -3 6 1
13 10 16 9 4 14 12 11 19 -3 8 2 16 11 19 9 4 13 9 10 13 -4 3 3 19 14 34 11
16 17 34 13 40 -4 8 -3 9 4 5 6 -3 16 3 22 15 10 17 9 20 -2 13 -7 -4 -5 2 5
14 11 12 16 26 11 33 -4 7 -3 10 2 7 5 -3 17 3 27 14 11 12 13 18 5 18 -8 1
-6 6 4 14 10 7 15 16 11 19 -3 4 -1 7 6 7 7 0 9 5 6 10 -3 6 -1 10 6 10 7 0
10 3 7 6 -3 3 5 16 18 29 13 13 24 31 24 40 0 8 5 15 12 15 6 0 8 3 5 6 -4 4
3 20 14 35 11 16 17 29 12 29 -4 0 -3 4 4 8 6 4 13 14 15 22 2 8 11 23 22 32
10 10 16 24 12 33 -3 8 -1 15 4 15 6 0 10 7 10 15 0 9 7 18 15 21 8 4 15 10
15 16 0 5 -6 6 -12 2 -7 -4 -5 2 6 14 10 12 24 19 30 15 7 -4 7 -1 -1 7 -9 10
-7 17 10 32 12 11 15 17 7 13 -8 -4 -6 2 6 12 11 10 18 25 16 32 -3 9 0 11 8
6 10 -6 12 -4 7 8 -3 10 -2 17 3 17 6 0 20 21 32 47 12 27 25 49 29 51 5 2 5
10 2 19 -4 11 -2 14 5 9 11 -6 17 5 13 27 0 4 5 7 13 7 8 0 13 8 12 18 0 9 4
16 11 15 7 -2 10 4 7 12 -4 8 -1 15 4 15 6 0 14 9 17 20 4 11 11 18 16 15 5
-3 6 1 3 9 -4 10 1 18 11 22 12 5 13 9 5 14 -9 5 -6 10 9 15 12 3 19 10 16 15
-3 5 5 19 17 31 13 12 18 19 12 16 -6 -3 -11 0 -11 7 0 8 6 12 14 9 7 -3 13 2
13 12 0 9 4 14 9 11 5 -3 12 6 15 19 4 14 11 23 17 20 5 -4 9 -3 8 2 -4 22 3
33 19 33 14 0 15 2 2 10 -10 6 -11 10 -2 10 6 0 12 7 12 15 0 8 4 15 9 15 5 0
13 9 16 20 4 11 11 17 17 14 7 -5 9 0 6 14 -4 13 -1 22 5 22 12 0 52 73 52 94
1 6 7 10 15 8 11 -3 11 0 -1 14 -12 15 -12 17 0 9 11 -6 13 -4 8 7 -4 11 1 18
15 22 19 4 20 7 7 22 -8 10 -9 15 -3 11 6 -4 20 3 30 15 12 14 14 18 4 13 -11
-6 -10 -3 3 12 9 11 17 25 17 31 0 7 5 12 10 12 6 0 10 5 10 11 0 5 -6 7 -12
4 -7 -4 -3 2 10 13 14 13 20 26 16 37 -4 10 -2 15 7 13 9 -2 13 4 11 16 -2 10
1 15 7 12 6 -4 13 5 17 19 3 14 10 25 16 25 5 0 6 4 3 10 -3 6 -1 10 5 10 6 0
9 4 5 9 -3 5 -1 12 5 16 6 4 8 11 5 16 -4 5 1 9 10 9 9 0 14 4 10 9 -3 5 1 16
9 23 14 15 31 58 28 71 -1 4 2 7 8 7 5 0 10 9 10 20 0 11 5 20 11 20 5 0 8 4
5 9 -4 5 -3 11 2 13 15 6 53 78 47 88 -3 5 0 10 7 10 8 0 14 10 15 22 1 11 6
24 11 27 10 7 26 43 24 54 -1 4 5 7 13 7 9 0 12 6 9 15 -4 8 -1 15 6 15 6 0 8
5 5 10 -3 6 -1 10 5 10 6 0 8 5 5 10 -3 6 -2 10 3 10 5 0 14 15 19 33 5 17 14
31 20 30 6 -1 10 5 8 15 -1 9 5 26 14 36 13 16 13 18 1 11 -13 -8 -13 -6 -1 8
7 9 17 15 21 12 5 -3 6 4 3 15 -3 12 0 20 6 20 7 0 9 5 6 10 -3 6 -1 10 4 10
6 0 11 5 11 11 0 5 -6 7 -12 3 -7 -4 -5 2 5 13 9 11 17 24 17 30 0 6 7 13 15
17 8 3 14 9 13 13 -4 17 14 53 24 47 6 -4 8 -2 4 4 -3 6 1 18 10 26 8 9 13 16
9 16 -3 0 1 13 9 29 9 16 12 32 8 36 -4 5 -1 5 6 1 11 -7 17 5 13 28 -1 5 5 6
14 2 13 -4 14 -2 5 14 -8 14 -8 20 0 20 6 0 8 5 5 10 -4 6 -1 9 6 8 7 -2 14 2
15 7 5 29 17 55 26 55 6 0 7 7 4 16 -3 8 -2 13 2 10 11 -7 30 25 26 46 -1 9 5
19 13 22 9 4 13 13 9 22 -3 8 -2 12 4 9 5 -3 12 6 16 20 3 14 10 25 16 25 5 0
7 4 3 9 -3 6 3 14 12 20 10 6 14 11 10 11 -4 0 -2 10 5 23 7 12 13 24 13 27 4
18 30 60 37 60 5 0 6 5 3 10 -3 6 1 10 11 10 13 0 14 3 4 15 -12 14 -7 20 14
16 5 -1 6 5 3 14 -4 8 -3 15 1 15 4 0 13 9 20 21 11 17 11 20 0 13 -7 -4 0 7
15 25 15 19 26 40 22 49 -3 9 0 12 8 9 10 -4 13 2 9 21 -4 20 -2 24 11 19 12
-4 14 0 11 18 -3 15 2 27 12 33 9 5 17 13 17 18 1 5 5 8 9 7 4 -2 5 4 2 12 -4
8 -1 15 5 15 6 0 8 7 4 17 -5 12 -3 14 7 8 10 -6 12 -3 7 14 -3 13 -3 20 0 17
10 -9 43 46 43 70 0 12 7 27 15 34 8 7 15 19 15 26 0 8 4 14 8 14 8 0 10 6 14
49 1 11 7 19 12 18 5 -1 12 7 14 18 2 11 12 26 21 33 9 7 11 11 4 8 -7 -4 -9
1 -6 15 3 11 12 23 19 26 7 2 10 12 7 20 -4 11 -2 14 5 9 8 -5 12 0 12 13 0
12 5 21 11 21 7 0 9 9 6 21 -3 12 -3 18 0 15 10 -10 32 15 26 30 -3 8 0 14 7
14 6 0 8 5 5 10 -3 6 0 13 9 16 8 3 17 12 20 20 4 10 2 13 -7 8 -6 -4 -1 5 13
21 14 16 18 24 10 20 -12 -7 -11 -4 2 11 9 10 18 26 20 34 2 8 10 21 18 28 13
12 13 13 0 7 -10 -4 -9 -2 2 8 10 8 15 17 11 20 -3 4 2 16 11 26 10 11 15 24
12 29 -3 6 1 13 10 16 9 4 14 9 11 13 -4 3 -1 13 6 21 10 13 9 15 -3 8 -8 -4
-6 0 4 8 11 9 16 16 11 16 -4 0 0 9 9 19 12 14 14 21 6 26 -7 4 -10 16 -7 26
3 11 2 17 -3 14 -4 -3 -11 2 -14 11 -4 10 -2 13 7 8 6 -4 1 4 -12 19 -13 15
-20 31 -16 38 5 8 4 10 -3 5 -7 -4 -12 -1 -12 7 0 8 -14 25 -31 38 -17 13 -40
32 -50 42 -11 9 -19 14 -19 11 0 -3 -7 2 -16 10 -8 9 -22 16 -30 16 -8 0 -14
5 -14 11 0 5 -5 7 -11 3 -6 -3 -14 -3 -18 2 -7 11 -60 36 -81 39 -8 1 -33 5
-55 9 -46 9 -113 12 -167 8z m42 -64 c0 -10 2 -10 8 -1 10 15 52 9 64 -9 4 -7
8 -8 8 -2 0 13 61 8 118 -11 12 -4 22 -10 22 -14 0 -4 9 -7 20 -8 11 -1 34
-11 50 -23 16 -12 35 -18 41 -15 6 4 13 -2 16 -14 3 -12 10 -21 16 -21 14 0
67 -57 60 -64 -4 -3 -1 -6 6 -6 7 0 10 -4 6 -9 -3 -5 -1 -13 5 -16 8 -5 7 -12
-2 -23 -8 -9 -8 -13 -2 -9 20 11 23 -17 7 -58 -8 -22 -15 -48 -16 -57 -1 -9
-5 -14 -9 -12 -4 3 -12 -5 -18 -16 -6 -11 -8 -20 -5 -20 4 0 -2 -12 -13 -27
-18 -27 -34 -60 -36 -75 -1 -3 -5 -10 -9 -15 -11 -11 -41 -76 -39 -85 1 -5 -2
-8 -8 -8 -6 0 -9 -6 -8 -12 2 -7 -2 -12 -9 -11 -7 2 -10 -6 -8 -17 2 -12 -2
-20 -10 -20 -19 0 -28 -17 -14 -26 8 -5 9 -3 4 6 -6 9 -4 11 5 5 10 -6 10 -11
-3 -20 -10 -7 -17 -16 -17 -22 0 -5 -9 -19 -20 -31 -12 -12 -16 -22 -9 -22 7
0 5 -8 -6 -20 -10 -11 -15 -28 -12 -40 3 -11 0 -23 -5 -27 -7 -3 -8 -1 -4 5 4
7 2 12 -3 12 -10 0 -13 -14 -10 -36 0 -4 -5 -10 -13 -15 -13 -8 -14 -12 -17
-45 0 -9 -6 -12 -13 -8 -7 4 -8 3 -4 -4 6 -10 -8 -46 -24 -62 -3 -3 -12 -14
-20 -24 -11 -14 -11 -18 -2 -12 11 7 12 4 2 -13 -6 -12 -15 -19 -20 -16 -6 3
-7 -1 -4 -9 3 -9 1 -16 -6 -16 -6 0 -9 -4 -5 -9 3 -5 -1 -16 -9 -23 -8 -8 -16
-23 -18 -34 -2 -10 -10 -18 -16 -17 -7 2 -11 0 -11 -5 4 -21 -2 -42 -10 -37
-5 3 -12 1 -16 -5 -3 -5 -1 -10 4 -10 8 0 7 -7 -1 -19 -7 -11 -16 -17 -22 -14
-5 4 -7 -1 -3 -10 3 -8 -1 -21 -8 -27 -8 -7 -13 -16 -10 -20 3 -4 -6 -19 -19
-33 -17 -18 -21 -28 -13 -36 7 -7 8 -11 1 -11 -6 0 -19 -16 -30 -35 -10 -19
-22 -35 -26 -35 -4 0 -5 -7 -2 -15 4 -8 -1 -17 -9 -21 -9 -3 -13 -12 -10 -20
3 -8 0 -14 -7 -14 -6 0 -9 -4 -6 -9 3 -5 -1 -12 -10 -15 -8 -3 -12 -10 -9 -16
3 -5 2 -10 -4 -10 -6 0 -8 -7 -5 -15 4 -8 2 -15 -4 -15 -5 0 -15 -13 -22 -30
-7 -16 -18 -30 -24 -30 -6 0 -4 -5 4 -10 10 -6 11 -10 3 -10 -7 0 -13 -9 -13
-21 0 -15 -5 -19 -16 -15 -8 3 -13 2 -9 -3 7 -12 -5 -42 -15 -36 -5 3 -7 -3
-6 -12 2 -10 -1 -21 -6 -24 -5 -3 -11 -12 -13 -20 -9 -38 -18 -59 -27 -59 -5
0 -6 -4 -3 -10 3 -5 1 -10 -5 -10 -6 0 -8 -4 -5 -10 3 -5 1 -10 -5 -10 -7 0
-10 -7 -6 -15 3 -8 2 -14 -2 -12 -4 1 -8 -2 -9 -6 -1 -5 -10 -15 -20 -24 -10
-8 -12 -12 -6 -8 8 4 11 1 7 -9 -3 -8 -12 -17 -20 -20 -8 -3 -11 -12 -7 -22 4
-11 2 -15 -4 -11 -6 4 -14 -5 -18 -21 -4 -15 -5 -27 -3 -27 2 0 -7 -11 -19
-24 -12 -13 -19 -30 -16 -39 4 -10 2 -13 -5 -8 -7 4 -12 1 -12 -8 0 -8 -6 -21
-12 -28 -7 -7 -13 -20 -13 -28 0 -8 -5 -14 -12 -13 -7 2 -10 -4 -6 -12 3 -9
-3 -25 -12 -35 -10 -11 -14 -20 -10 -20 5 0 0 -7 -11 -16 -10 -8 -12 -12 -4
-8 13 7 13 6 0 -12 -8 -10 -19 -22 -25 -26 -5 -4 -6 -8 -1 -8 5 0 3 -7 -4 -15
-7 -8 -9 -15 -4 -15 4 0 -1 -7 -12 -16 -10 -8 -12 -13 -4 -9 9 4 7 0 -4 -9
-10 -8 -15 -19 -12 -25 4 -5 -2 -14 -11 -20 -10 -6 -14 -11 -9 -11 4 0 1 -11
-8 -25 -9 -14 -13 -25 -9 -25 4 0 -2 -7 -13 -16 -10 -8 -12 -12 -4 -8 12 7 13
5 3 -8 -7 -8 -9 -19 -5 -23 4 -5 1 -5 -5 -1 -8 4 -13 1 -13 -8 0 -9 -5 -16
-12 -16 -6 0 -8 -3 -5 -6 4 -4 -3 -20 -14 -35 -11 -16 -17 -33 -14 -39 3 -5 2
-10 -4 -10 -10 0 -27 -39 -23 -53 1 -5 -3 -5 -9 -1 -9 5 -10 2 -6 -9 4 -10 2
-16 -5 -14 -7 1 -12 -7 -12 -18 0 -11 -8 -27 -18 -36 -10 -9 -15 -18 -13 -21
3 -3 -10 -31 -30 -63 -19 -33 -35 -63 -35 -68 0 -4 -4 -6 -8 -3 -4 2 -9 -5 -9
-17 -1 -12 -8 -26 -16 -32 -8 -5 -12 -16 -9 -24 2 -8 0 -11 -5 -8 -5 3 -20
-18 -33 -48 -13 -30 -28 -51 -34 -48 -5 4 -7 -1 -3 -11 4 -10 1 -19 -8 -22 -8
-4 -13 -10 -10 -14 2 -4 -4 -18 -15 -30 -11 -13 -20 -27 -20 -32 0 -5 -4 -6
-10 -3 -5 3 -7 0 -4 -8 3 -8 -2 -20 -11 -27 -13 -11 -13 -15 -3 -21 10 -7 8
-9 -5 -9 -10 0 -15 -4 -12 -10 3 -6 1 -10 -5 -10 -6 0 -8 -4 -5 -10 3 -6 -1
-7 -10 -4 -9 4 -15 3 -14 -2 3 -18 -2 -31 -18 -50 -44 -49 -58 -69 -40 -55 10
8 17 9 17 3 0 -6 -9 -14 -21 -17 -11 -4 -18 -9 -15 -12 3 -4 -2 -12 -12 -20
-9 -8 -11 -12 -4 -8 6 3 12 2 12 -3 0 -5 -10 -12 -22 -15 -12 -4 -19 -9 -15
-13 3 -4 -2 -18 -13 -32 -11 -13 -17 -29 -13 -35 3 -5 1 -7 -4 -4 -10 6 -19
-6 -24 -31 -1 -4 -10 -13 -20 -20 -11 -7 -19 -22 -19 -33 0 -10 -4 -19 -10
-19 -5 0 -10 -7 -10 -15 0 -8 -3 -15 -7 -15 -5 0 -16 -20 -26 -45 -11 -25 -23
-45 -28 -45 -5 0 -8 -6 -6 -12 1 -7 -3 -12 -9 -11 -6 1 -10 -9 -8 -22 1 -13
-1 -23 -6 -22 -4 1 -8 -2 -8 -7 0 -5 -4 -12 -9 -15 -17 -13 -53 -71 -53 -86 0
-10 -5 -13 -12 -9 -7 4 -8 3 -4 -4 4 -6 0 -22 -9 -35 -8 -13 -12 -27 -9 -30 4
-4 0 -9 -9 -13 -9 -3 -13 -12 -10 -21 4 -11 2 -14 -5 -9 -8 4 -12 0 -12 -12 0
-10 -3 -22 -7 -26 -5 -4 -9 -12 -9 -17 -3 -22 -5 -23 -15 -9 -9 13 -10 13 -6
-1 3 -9 0 -22 -6 -29 -9 -10 -9 -11 3 -6 8 4 6 0 -5 -9 -11 -9 -20 -20 -20
-26 0 -5 -6 -13 -13 -18 -8 -5 -13 -10 -12 -12 4 -12 -14 -38 -23 -32 -6 4 -7
1 -3 -6 5 -7 0 -19 -10 -27 -11 -9 -12 -12 -4 -8 13 7 13 5 2 -9 -8 -9 -10
-22 -6 -28 5 -8 3 -9 -5 -5 -8 5 -14 0 -18 -13 -3 -12 -10 -21 -15 -21 -5 0
-7 -4 -3 -9 3 -5 -2 -17 -11 -25 -8 -9 -12 -16 -7 -16 4 0 0 -5 -9 -11 -11 -6
-15 -16 -11 -26 4 -11 3 -14 -5 -9 -11 7 -17 -6 -13 -28 1 -5 -6 -5 -16 -2
-14 6 -15 5 -6 -5 10 -10 9 -15 -5 -26 -9 -8 -11 -11 -4 -8 11 6 11 3 1 -13
-7 -12 -18 -20 -23 -19 -6 1 -10 -4 -9 -10 5 -23 -14 -14 -56 26 -22 21 -41
36 -41 32 0 -3 -5 2 -11 12 -5 9 -17 17 -25 17 -8 0 -12 4 -9 10 3 5 -1 10 -9
10 -9 0 -16 5 -16 11 0 5 -4 8 -8 5 -12 -7 -63 29 -55 39 5 4 3 5 -4 2 -14 -9
-45 2 -38 13 3 5 -4 6 -15 3 -11 -3 -20 0 -20 6 0 6 -9 11 -19 11 -10 0 -22 7
-25 16 -4 9 -9 14 -13 11 -3 -4 -12 -2 -19 3 -6 6 -16 10 -20 9 -5 -1 -22 3
-37 9 -16 7 -47 14 -70 17 -79 10 -96 13 -106 20 -6 3 -11 2 -11 -4 0 -5 -9
-9 -20 -8 -14 1 -19 6 -14 17 4 8 6 23 6 33 0 10 4 15 10 11 7 -5 9 0 6 14 -4
12 -3 20 1 17 5 -2 14 8 22 23 8 15 21 33 29 40 11 10 12 12 1 6 -9 -5 -8 2 5
19 10 15 24 27 29 27 6 0 3 5 -5 10 -13 8 -13 10 2 10 11 0 16 6 13 20 -2 13
2 20 11 20 9 0 12 5 8 11 -4 7 4 20 17 31 13 11 18 16 10 12 -16 -8 -8 9 17
39 10 11 11 17 4 17 -7 0 -4 8 6 18 9 10 24 17 32 14 11 -3 12 -2 2 5 -14 10
-6 43 10 43 6 0 8 11 6 24 -4 18 -1 23 10 18 10 -3 13 -1 9 5 -4 6 0 19 9 27
8 9 13 16 9 16 -3 0 3 13 15 29 11 16 19 36 18 43 -2 7 2 12 9 11 8 -2 10 4 6
14 -5 12 -3 14 7 8 9 -5 11 -4 6 3 -8 13 17 56 26 47 3 -3 8 1 12 10 3 9 2 13
-4 10 -6 -3 -10 -2 -10 3 0 6 7 13 16 16 8 3 12 10 9 16 -3 5 2 10 12 11 10 0
13 3 6 6 -7 2 -13 9 -13 14 0 6 5 7 10 4 6 -3 10 1 10 10 0 10 5 13 12 9 8 -5
7 0 -2 11 -14 17 -13 18 2 12 12 -4 15 -2 11 8 -3 8 2 18 11 21 9 3 13 10 10
15 -3 5 0 9 6 9 6 0 8 5 5 10 -3 6 -1 10 5 10 6 0 8 5 5 10 -3 5 -2 10 3 10 5
0 17 16 26 35 9 19 21 35 26 35 6 0 10 7 10 15 0 8 4 15 10 15 5 0 9 3 9 8 -4
21 2 32 14 26 6 -4 9 -4 5 1 -7 7 27 81 43 95 6 6 21 43 19 49 -1 2 4 7 12 12
7 5 13 13 13 18 0 6 9 17 20 26 11 9 14 14 8 10 -7 -3 -13 -1 -13 4 0 6 5 11
11 11 5 0 8 4 5 9 -3 4 2 17 10 27 9 10 13 13 9 7 -3 -7 -1 -13 5 -13 7 0 9 8
5 20 -4 12 -2 20 5 20 6 0 9 4 5 9 -3 6 5 20 17 32 13 12 17 19 11 15 -9 -5
-11 -2 -7 8 3 8 16 18 27 22 22 7 22 7 2 15 -11 4 -14 8 -7 8 7 1 10 6 7 11
-3 6 1 10 10 10 9 0 14 4 10 9 -3 5 2 17 11 25 12 12 12 16 2 17 -7 0 -3 4 10
9 14 6 22 17 20 27 -2 10 2 17 9 16 8 -2 10 4 6 14 -4 11 -3 14 6 9 8 -6 11
-2 9 10 -2 11 2 18 9 17 6 -1 10 8 8 22 -1 15 2 22 8 18 6 -4 8 0 4 10 -3 9
-3 16 1 14 4 -1 8 1 10 6 1 4 11 16 22 27 12 12 18 26 14 32 -4 7 -3 8 4 4 10
-6 17 7 10 17 -6 7 37 45 45 40 6 -3 7 -1 3 5 -3 6 -2 13 4 17 6 4 7 11 4 17
-4 6 -2 8 4 4 6 -3 13 3 17 14 4 11 20 35 36 52 16 18 29 38 29 45 0 7 5 13
12 13 6 0 8 3 5 7 -4 3 1 12 11 20 9 8 11 12 5 8 -9 -4 -11 -1 -7 9 3 9 10 13
15 10 5 -3 9 3 9 13 1 23 25 55 34 45 4 -4 7 -2 6 3 -5 23 1 46 10 40 6 -3 10
1 10 10 0 10 5 13 12 9 7 -4 8 -3 4 5 -4 6 -2 18 4 26 10 12 10 15 -1 15 -8 1
-4 6 9 13 12 7 19 16 16 20 -4 4 -3 7 3 7 11 0 37 57 34 73 0 4 6 7 14 7 13 0
14 4 5 20 -9 16 -8 19 6 13 11 -4 15 -2 11 4 -6 10 15 36 24 30 2 -1 1 2 -3 7
-13 16 -9 29 5 23 8 -3 14 1 15 9 1 8 3 21 4 29 1 8 8 15 17 15 14 0 14 2 1
10 -13 8 -13 10 2 10 11 0 15 5 12 14 -3 8 0 17 5 21 6 3 8 11 5 17 -4 7 -2 8
4 4 11 -6 16 6 13 27 0 4 4 7 10 7 6 0 8 7 5 16 -3 8 -2 13 3 10 5 -3 14 8 21
24 7 17 15 30 19 30 7 0 34 61 32 73 0 4 4 7 10 7 5 0 15 13 20 30 6 16 15 27
20 24 5 -3 6 1 3 9 -3 8 2 21 10 29 11 12 12 18 3 27 -9 9 -8 11 7 5 13 -5 17
-4 12 4 -3 6 -1 14 5 17 5 4 8 13 5 21 -3 8 -2 13 2 11 4 -1 9 3 11 8 2 6 11
15 20 22 12 9 12 12 3 13 -10 0 -10 4 2 16 9 8 16 20 16 25 0 6 4 8 9 4 6 -3
8 4 6 16 -3 15 0 19 11 15 8 -3 12 -2 9 3 -3 5 0 13 6 16 5 4 8 13 5 21 -3 8
1 14 11 14 12 0 13 3 4 13 -8 10 -5 19 12 35 31 29 49 52 41 52 -3 0 -1 6 5
13 6 8 7 18 3 22 -4 5 2 5 13 1 11 -4 16 -4 12 0 -4 4 -1 14 6 22 6 9 7 13 1
9 -6 -3 -11 0 -11 8 0 8 4 12 9 9 7 -5 12 10 9 28 0 5 5 7 12 5 6 -1 11 6 11
15 -1 10 2 15 7 12 5 -3 9 -1 9 5 0 5 7 17 16 25 9 9 11 16 4 16 -6 0 -8 5 -5
10 4 6 11 7 17 4 6 -4 9 -1 6 7 -2 7 5 22 16 32 12 10 15 15 7 12 -9 -5 -8 0
4 18 10 15 13 32 9 39 -6 11 -5 10 8 0 14 -11 16 -10 14 12 -2 18 1 23 12 18
10 -3 13 -1 8 6 -4 7 -2 12 6 12 11 0 10 2 0 9 -11 6 -9 9 6 13 14 4 19 13 17
32 -2 14 0 24 3 22 4 -2 19 16 34 41 16 24 22 41 15 38 -6 -4 -4 0 6 8 10 8
16 21 15 28 -2 8 3 13 10 12 7 -2 12 8 12 28 0 17 4 28 10 24 6 -3 10 3 10 15
0 12 4 19 9 16 5 -3 12 1 15 10 3 8 2 12 -4 9 -6 -3 -7 1 -4 9 3 9 10 13 15
10 5 -3 9 2 9 10 0 9 5 16 10 16 6 0 10 7 10 15 0 8 5 15 11 15 5 0 7 5 4 10
-3 6 0 13 9 16 8 3 13 14 11 26 -3 14 0 18 11 14 8 -3 12 -2 9 4 -3 5 5 19 17
31 13 12 16 18 8 14 -9 -5 -7 1 5 15 11 13 14 20 7 16 -11 -7 -11 -4 -1 12 7
12 17 19 21 16 4 -3 5 2 2 10 -3 9 -2 16 3 16 6 0 15 12 21 26 8 16 17 22 25
18 9 -6 9 -4 -1 8 -10 13 -10 17 3 22 8 3 15 12 15 21 0 8 5 15 10 15 5 0 9 6
7 13 -1 6 3 11 10 10 6 -1 10 8 8 22 -1 13 2 22 6 19 5 -3 9 0 9 6 0 6 5 8 12
4 6 -4 8 -3 4 4 -3 6 2 15 11 21 10 6 12 11 6 11 -14 0 -12 3 46 66 20 23 35
31 54 29 15 -2 29 1 33 6 8 13 24 11 24 -3z m-2522 -4527 c11 -6 22 -8 24 -5
10 9 48 13 43 3 -4 -5 0 -9 7 -10 7 0 22 -3 33 -5 11 -3 26 -6 33 -6 6 -1 12
-5 12 -10 0 -5 5 -6 10 -3 6 3 10 1 10 -5 0 -6 4 -9 8 -6 5 3 20 -5 33 -17 13
-12 25 -20 27 -18 6 7 61 -22 56 -30 -3 -5 1 -6 8 -4 8 3 23 -2 34 -12 11 -10
26 -19 33 -21 7 -1 19 -8 26 -15 7 -7 23 -19 35 -27 42 -29 91 -74 102 -93 6
-12 6 -17 0 -13 -5 3 -13 -1 -16 -10 -3 -8 -11 -12 -17 -8 -8 4 -9 3 -5 -4 3
-6 -2 -16 -13 -21 -11 -6 -23 -20 -26 -31 -4 -11 -11 -18 -16 -15 -5 4 -9 0
-9 -7 0 -17 -36 -48 -46 -40 -4 4 -4 1 1 -6 5 -9 -4 -24 -24 -43 -18 -16 -30
-29 -27 -29 3 0 -3 -9 -15 -21 -25 -25 -79 -18 -86 12 -3 10 -12 19 -19 19 -8
0 -14 5 -14 11 0 5 -5 7 -10 4 -6 -3 -17 1 -26 9 -9 9 -19 14 -24 11 -4 -3
-13 2 -20 10 -6 7 -18 11 -26 8 -8 -3 -14 0 -14 7 0 6 -4 8 -10 5 -5 -3 -10
-1 -10 5 0 6 -4 8 -10 5 -5 -3 -18 -2 -27 4 -27 14 -95 19 -117 8 -14 -7 -17
-6 -11 5 6 10 5 11 -6 1 -7 -7 -16 -13 -19 -13 -4 0 -7 6 -7 13 0 6 -2 35 -3
62 -1 28 1 58 5 68 4 9 3 17 -3 17 -6 0 -8 14 -5 33 9 56 7 70 -9 61 -9 -5 -9
-2 1 9 7 9 10 17 6 17 -4 0 -1 8 6 17 8 10 9 14 2 10 -13 -8 -13 29 0 50 4 6
3 14 -2 18 -12 7 7 55 21 55 5 0 6 -6 2 -12 -6 -10 -4 -10 7 -2 8 6 22 10 32
9 9 -2 17 1 17 5 0 10 31 6 58 -9z"/>
<path d="M3165 4580 c-3 -5 -1 -10 4 -10 6 0 11 5 11 10 0 6 -2 10 -4 10 -3 0
-8 -4 -11 -10z"/>
</g>
</svg>
